<svg width="19" height="19" viewBox="0 0 19 19" fill="none" xmlns="http://www.w3.org/2000/svg">
<path fill-rule="evenodd" clip-rule="evenodd" d="M15.1629 15.1722C15.1629 15.4349 15.0586 15.6869 14.8728 15.8727C14.6869 16.0586 14.4349 16.1629 14.1722 16.1629H3.82756C3.56479 16.1629 3.31279 16.0586 3.12698 15.8727C2.94118 15.6869 2.8368 15.4349 2.8368 15.1722V4.82754C2.8368 4.27985 3.27987 3.8368 3.82756 3.8368H8.21217C8.31217 3.8368 8.41218 3.79521 8.48295 3.7229L10.0122 2.19524C10.0661 2.14145 10.1028 2.07284 10.1177 1.99814C10.1326 1.92344 10.125 1.84606 10.0959 1.77569C10.0667 1.70533 10.0173 1.64517 9.95391 1.60291C9.89053 1.56066 9.81604 1.53817 9.73987 1.53831H3.82756C2.9552 1.53831 2.11857 1.88488 1.50172 2.50173C0.884873 3.11858 0.53833 3.95518 0.53833 4.82754V15.1722C0.53833 16.9875 2.01064 18.4614 3.82756 18.4614H14.1722C14.6041 18.4614 15.0318 18.3763 15.4309 18.2111C15.83 18.0457 16.1926 17.8034 16.498 17.498C16.8034 17.1925 17.0457 16.83 17.211 16.4309C17.3763 16.0318 17.4614 15.6041 17.4614 15.1722V9.25982C17.4615 9.18365 17.4391 9.1092 17.3968 9.04582C17.3545 8.98245 17.2944 8.93301 17.2241 8.90385C17.1537 8.87468 17.0763 8.86707 17.0016 8.88197C16.9269 8.89686 16.8583 8.93358 16.8045 8.98751L15.1629 10.6291V15.1722ZM16.7383 1.1075C16.6314 1.00014 16.5043 0.915004 16.3644 0.856877C16.2245 0.79875 16.0745 0.768799 15.9229 0.768799C15.7714 0.768799 15.6214 0.79875 15.4815 0.856877C15.3415 0.915004 15.2145 1.00014 15.1076 1.1075L14.2014 2.01213C14.1656 2.04786 14.1372 2.09029 14.1178 2.13702C14.0984 2.18375 14.0884 2.23385 14.0884 2.28444C14.0884 2.33503 14.0984 2.38514 14.1178 2.43187C14.1372 2.47859 14.1656 2.52103 14.2014 2.55675L16.4429 4.79834C16.4787 4.83416 16.5211 4.86252 16.5678 4.88191C16.6146 4.9013 16.6647 4.9113 16.7153 4.9113C16.7658 4.9113 16.8159 4.9013 16.8627 4.88191C16.9094 4.86252 16.9518 4.83416 16.9876 4.79834L17.8922 3.8922C18.1083 3.67586 18.2296 3.38254 18.2296 3.07677C18.2296 2.771 18.1083 2.47769 17.8922 2.26134L16.7383 1.1075Z" fill="#050505"/>
<path fill-rule="evenodd" clip-rule="evenodd" d="M5.49227 10.723C5.27582 10.9392 5.15408 11.2325 5.15381 11.5385V12.6923C5.15381 13.3292 5.67073 13.8462 6.30765 13.8462H7.4615C7.76742 13.8459 8.0607 13.7242 8.27688 13.5077L14.8123 6.97388C14.8481 6.93815 14.8765 6.89572 14.8959 6.84899C14.9153 6.80226 14.9253 6.75216 14.9253 6.70157C14.9253 6.65098 14.9153 6.60087 14.8959 6.55414C14.8765 6.50742 14.8481 6.46498 14.8123 6.42926L12.5707 4.18767C12.535 4.15185 12.4926 4.12349 12.4458 4.1041C12.3991 4.08471 12.349 4.07471 12.2984 4.07471C12.2478 4.07471 12.1977 4.08471 12.151 4.1041C12.1043 4.12349 12.0618 4.15185 12.0261 4.18767L5.49227 10.723Z" fill="#050505"/>
</svg>
